# xmcd
#
# Track frame offsets: 
#        150
#        14729
#        28998
#        40700
#        57136
#        68679
#        75521
#        85947
#        99535
#        111680
#        129090
#
# Disc length: 1913 seconds
#
# Revision: 0
# Processed by: cddbd v1.5.2PL0 Copyright (c) Steve Scherf et al.
# Submitted via: ExactAudioCopyFreeDBPlugin 1.0
#
DISCID=8b07770b
DTITLE=Rex Hobart and The Misery Boys - Long Shot Of Hard Stuff
DYEAR=2015
DGENRE=Country
TTITLE0=Long Shot Of Hard Stuff
TTITLE1=Gonna Get My Honky Tonk Back On
TTITLE2=Gold Band On My Thumb
TTITLE3=Here In Hell
TTITLE4=Ring Ring Ring
TTITLE5=Lost Cause
TTITLE6=Jonesin' For Merle Haggard (To Sing Me Back Home)
TTITLE7=Shotgun Willie
TTITLE8=Ain't No Bras In Austin
TTITLE9=Every Time He Breaks Your Heart
TTITLE10=Home On The Road
EXTD=
EXTT0=
EXTT1=
EXTT2=
EXTT3=
EXTT4=
EXTT5=
EXTT6=
EXTT7=
EXTT8=
EXTT9=
EXTT10=
PLAYORDER=
